<svg width="50" height="50" viewBox="0 0 24 24" fill="none" xmlns="http://www.w3.org/2000/svg">
<path d="M18.75 12C18.75 12.4142 18.4142 12.75 18 12.75C17.5858 12.75 17.25 12.4142 17.25 12C17.25 11.5858 17.5858 11.25 18 11.25C18.4142 11.25 18.75 11.5858 18.75 12Z" fill="#e9e8f8"></path>
<path d="M3.02 9H20.98M13.5 12H15.5M21 11V10.9V10.9C21 8.18625 21 6.82937 20.3689 5.84345C20.0571 5.35647 19.6435 4.94286 19.1566 4.63113C18.1706 4 16.8138 4 14.1 4H10.2C7.20021 4 5.70032 4 4.64886 4.76393C4.30928 5.01065 4.01065 5.30928 3.76393 5.64886C3 6.70032 3 8.20021 3 11.2V12.8C3 15.7998 3 17.2997 3.76393 18.3511C4.01065 18.6907 4.30928 18.9893 4.64886 19.2361C5.70032 20 7.20021 20 10.2 20H16C16.9293 20 17.394 20 17.7804 19.9231C19.3671 19.6075 20.6075 18.3671 20.9231 16.7804C21 16.394 21 15.9293 21 15V15" stroke="#e9e8f8" stroke-width="1.5" stroke-linecap="round" stroke-linejoin="round"></path>
</svg>