<svg width="50" height="50" viewBox="0 0 24 24" fill="none" xmlns="http://www.w3.org/2000/svg">
<path fill-rule="evenodd" clip-rule="evenodd" d="M4.00012 12C2.99997 7 7.02956 3 12.0001 3C16.9707 3 21 7 20.0001 12C19.335 15.3259 16.015 18.4306 13.8664 20.1368C13.1641 20.6944 12.813 20.9732 12.2678 21.0468C12.1166 21.0672 11.8836 21.0672 11.7325 21.0468C11.1873 20.9732 10.8361 20.6944 10.1339 20.1367C7.98533 18.4306 4.66541 15.3259 4.00012 12ZM12 14.15C13.6569 14.15 15 12.8069 15 11.15C15 9.49317 13.6569 8.15002 12 8.15002C10.3431 8.15002 9 9.49317 9 11.15C9 12.8069 10.3431 14.15 12 14.15Z" fill="#e9e8f8" fill-opacity="0.18"></path>
<path d="M12.0001 3C7.02956 3 2.99997 7 4.00012 12C4.66541 15.3259 7.98533 18.4306 10.1339 20.1367C10.8361 20.6944 11.1873 20.9732 11.7325 21.0468C11.8836 21.0672 12.1166 21.0672 12.2678 21.0468C12.813 20.9732 13.1641 20.6944 13.8664 20.1368C16.015 18.4306 19.335 15.3259 20.0001 12C21 7 16.9707 3 12.0001 3Z" stroke="#e9e8f8" stroke-width="1.5" stroke-linejoin="round"></path>
<path d="M15 11.15C15 12.8069 13.6569 14.15 12 14.15C10.3431 14.15 9 12.8069 9 11.15C9 9.49315 10.3431 8.15 12 8.15C13.6569 8.15 15 9.49315 15 11.15Z" stroke="#e9e8f8" stroke-width="1.5" stroke-linejoin="round"></path>
</svg>